<svg width="23" height="12" viewBox="0 0 23 12" fill="none" xmlns="http://www.w3.org/2000/svg">
<circle cx="3" cy="3" r="1" fill="#8AB5F4" fill-opacity="0.43"/>
<circle cx="3" cy="3" r="1" fill="#8AB5F4" fill-opacity="0.43"/>
<circle cx="3" cy="3" r="1" fill="#8AB5F4" fill-opacity="0.43"/>
<circle cx="6" cy="3" r="1" fill="#8AB5F4" fill-opacity="0.43"/>
<circle cx="6" cy="3" r="1" fill="#8AB5F4" fill-opacity="0.43"/>
<circle cx="6" cy="3" r="1" fill="#8AB5F4" fill-opacity="0.43"/>
<circle cx="9" cy="3" r="1" fill="#8AB5F4" fill-opacity="0.43"/>
<circle cx="9" cy="3" r="1" fill="#8AB5F4" fill-opacity="0.43"/>
<circle cx="9" cy="3" r="1" fill="#8AB5F4" fill-opacity="0.43"/>
<circle cx="12" cy="3" r="1" fill="#8AB5F4" fill-opacity="0.43"/>
<circle cx="12" cy="3" r="1" fill="#8AB5F4" fill-opacity="0.43"/>
<circle cx="12" cy="3" r="1" fill="#8AB5F4" fill-opacity="0.43"/>
<circle cx="15" cy="3" r="1" fill="#8AB5F4" fill-opacity="0.43"/>
<circle cx="15" cy="3" r="1" fill="#8AB5F4" fill-opacity="0.43"/>
<circle cx="15" cy="3" r="1" fill="#8AB5F4" fill-opacity="0.43"/>
<circle cx="18" cy="3" r="1" fill="#8AB5F4" fill-opacity="0.43"/>
<circle cx="18" cy="3" r="1" fill="#8AB5F4" fill-opacity="0.43"/>
<circle cx="18" cy="3" r="1" fill="#8AB5F4" fill-opacity="0.43"/>
<circle cx="21" cy="3" r="1" fill="#8AB5F4" fill-opacity="0.43"/>
<circle cx="21" cy="3" r="1" fill="#8AB5F4" fill-opacity="0.43"/>
<circle cx="21" cy="3" r="1" fill="#8AB5F4" fill-opacity="0.43"/>
<circle cx="3" cy="6" r="1" fill="#8AB5F4" fill-opacity="0.43"/>
<circle cx="3" cy="6" r="1" fill="#8AB5F4" fill-opacity="0.43"/>
<circle cx="3" cy="6" r="1" fill="#8AB5F4" fill-opacity="0.43"/>
<circle cx="6" cy="6" r="1" fill="#8AB5F4" fill-opacity="0.43"/>
<circle cx="6" cy="6" r="1" fill="#8AB5F4" fill-opacity="0.43"/>
<circle cx="6" cy="6" r="1" fill="#8AB5F4" fill-opacity="0.43"/>
<circle cx="9" cy="6" r="1" fill="#8AB5F4" fill-opacity="0.43"/>
<circle cx="9" cy="6" r="1" fill="#8AB5F4" fill-opacity="0.43"/>
<circle cx="9" cy="6" r="1" fill="#8AB5F4" fill-opacity="0.43"/>
<circle cx="12" cy="6" r="1" fill="#8AB5F4" fill-opacity="0.43"/>
<circle cx="12" cy="6" r="1" fill="#8AB5F4" fill-opacity="0.43"/>
<circle cx="12" cy="6" r="1" fill="#8AB5F4" fill-opacity="0.43"/>
<circle cx="15" cy="6" r="1" fill="#8AB5F4" fill-opacity="0.43"/>
<circle cx="15" cy="6" r="1" fill="#8AB5F4" fill-opacity="0.43"/>
<circle cx="15" cy="6" r="1" fill="#8AB5F4" fill-opacity="0.43"/>
<circle cx="18" cy="6" r="1" fill="#8AB5F4" fill-opacity="0.43"/>
<circle cx="18" cy="6" r="1" fill="#8AB5F4" fill-opacity="0.43"/>
<circle cx="18" cy="6" r="1" fill="#8AB5F4" fill-opacity="0.43"/>
<circle cx="21" cy="6" r="1" fill="#8AB5F4" fill-opacity="0.43"/>
<circle cx="21" cy="6" r="1" fill="#8AB5F4" fill-opacity="0.43"/>
<circle cx="21" cy="6" r="1" fill="#8AB5F4" fill-opacity="0.43"/>
<circle cx="3" cy="9" r="1" fill="#8AB5F4" fill-opacity="0.43"/>
<circle cx="3" cy="9" r="1" fill="#8AB5F4" fill-opacity="0.43"/>
<circle cx="3" cy="9" r="1" fill="#8AB5F4" fill-opacity="0.43"/>
<circle cx="6" cy="9" r="1" fill="#8AB5F4" fill-opacity="0.43"/>
<circle cx="6" cy="9" r="1" fill="#8AB5F4" fill-opacity="0.43"/>
<circle cx="6" cy="9" r="1" fill="#8AB5F4" fill-opacity="0.43"/>
<circle cx="9" cy="9" r="1" fill="#8AB5F4" fill-opacity="0.43"/>
<circle cx="9" cy="9" r="1" fill="#8AB5F4" fill-opacity="0.43"/>
<circle cx="9" cy="9" r="1" fill="#8AB5F4" fill-opacity="0.43"/>
<circle cx="12" cy="9" r="1" fill="#8AB5F4" fill-opacity="0.43"/>
<circle cx="12" cy="9" r="1" fill="#8AB5F4" fill-opacity="0.43"/>
<circle cx="12" cy="9" r="1" fill="#8AB5F4" fill-opacity="0.43"/>
<circle cx="15" cy="9" r="1" fill="#8AB5F4" fill-opacity="0.43"/>
<circle cx="15" cy="9" r="1" fill="#8AB5F4" fill-opacity="0.43"/>
<circle cx="15" cy="9" r="1" fill="#8AB5F4" fill-opacity="0.43"/>
<circle cx="18" cy="9" r="1" fill="#8AB5F4" fill-opacity="0.43"/>
<circle cx="18" cy="9" r="1" fill="#8AB5F4" fill-opacity="0.43"/>
<circle cx="18" cy="9" r="1" fill="#8AB5F4" fill-opacity="0.43"/>
<circle cx="21" cy="9" r="1" fill="#8AB5F4" fill-opacity="0.43"/>
<circle cx="21" cy="9" r="1" fill="#8AB5F4" fill-opacity="0.43"/>
<circle cx="21" cy="9" r="1" fill="#8AB5F4" fill-opacity="0.43"/>
</svg>
