<svg width="109" height="109" viewBox="0 0 109 109" fill="none" xmlns="http://www.w3.org/2000/svg">
<circle cx="4.5" cy="4.5" r="4.5" fill="#C0D3FC" fill-opacity="0.42"/>
<circle cx="29.5" cy="4.5" r="4.5" fill="#C0D3FC" fill-opacity="0.42"/>
<circle cx="54.5" cy="4.5" r="4.5" fill="#C0D3FC" fill-opacity="0.42"/>
<circle cx="79.5" cy="4.5" r="4.5" fill="#C0D3FC" fill-opacity="0.42"/>
<circle cx="104.5" cy="4.5" r="4.5" fill="#C0D3FC" fill-opacity="0.42"/>
<circle cx="4.5" cy="29.5" r="4.5" fill="#C0D3FC" fill-opacity="0.42"/>
<circle cx="29.5" cy="29.5" r="4.5" fill="#C0D3FC" fill-opacity="0.42"/>
<circle cx="54.5" cy="29.5" r="4.5" fill="#C0D3FC" fill-opacity="0.42"/>
<circle cx="79.5" cy="29.5" r="4.5" fill="#C0D3FC" fill-opacity="0.42"/>
<circle cx="104.5" cy="29.5" r="4.5" fill="#C0D3FC" fill-opacity="0.42"/>
<circle cx="4.5" cy="54.5" r="4.5" fill="#C0D3FC" fill-opacity="0.42"/>
<circle cx="29.5" cy="54.5" r="4.5" fill="#C0D3FC" fill-opacity="0.42"/>
<circle cx="54.5" cy="54.5" r="4.5" fill="#C0D3FC" fill-opacity="0.42"/>
<circle cx="79.5" cy="54.5" r="4.5" fill="#C0D3FC" fill-opacity="0.42"/>
<circle cx="104.5" cy="54.5" r="4.5" fill="#C0D3FC" fill-opacity="0.42"/>
<circle cx="4.5" cy="79.5" r="4.5" fill="#C0D3FC" fill-opacity="0.42"/>
<circle cx="29.5" cy="79.5" r="4.5" fill="#C0D3FC" fill-opacity="0.42"/>
<circle cx="54.5" cy="79.5" r="4.5" fill="#C0D3FC" fill-opacity="0.42"/>
<circle cx="79.5" cy="79.5" r="4.5" fill="#C0D3FC" fill-opacity="0.42"/>
<circle cx="104.5" cy="79.5" r="4.5" fill="#C0D3FC" fill-opacity="0.42"/>
<circle cx="4.5" cy="104.5" r="4.5" fill="#C0D3FC" fill-opacity="0.42"/>
<circle cx="29.5" cy="104.5" r="4.5" fill="#C0D3FC" fill-opacity="0.42"/>
<circle cx="54.5" cy="104.5" r="4.5" fill="#C0D3FC" fill-opacity="0.42"/>
<circle cx="79.5" cy="104.5" r="4.5" fill="#C0D3FC" fill-opacity="0.42"/>
<circle cx="104.5" cy="104.5" r="4.5" fill="#C0D3FC" fill-opacity="0.42"/>
</svg>
