<svg width="24" height="24" viewBox="0 0 24 24" fill="none" xmlns="http://www.w3.org/2000/svg">
<line x1="12.047" y1="11.7055" x2="5.70554" y2="18.953" stroke="url(#paint0_linear_1055_111)" stroke-linecap="round"/>
<path d="M17.0941 9.25112C17.2093 9.22712 17.2778 9.1066 17.2206 9.00382C17.0945 8.77722 16.8957 8.5781 16.6414 8.42636C16.314 8.23093 15.9128 8.125 15.5 8.125C15.0873 8.125 14.686 8.23093 14.3586 8.42636C14.1043 8.5781 13.9056 8.77722 13.7794 9.00382C13.7222 9.1066 13.7908 9.22712 13.9059 9.25112V9.25112C14.9574 9.47024 16.0427 9.47024 17.0941 9.25112V9.25112Z" fill="url(#paint1_linear_1055_111)"/>
<ellipse cx="15.5" cy="6.66667" rx="1.04167" ry="1.04167" fill="url(#paint2_linear_1055_111)" fill-opacity="0.96"/>
<circle cx="15.5" cy="7.5" r="5" stroke="url(#paint3_linear_1055_111)"/>
<defs>
<linearGradient id="paint0_linear_1055_111" x1="11.5" y1="11.5" x2="3.5" y2="20.5" gradientUnits="userSpaceOnUse">
<stop stop-color="#92FE9D" stop-opacity="0.57"/>
<stop offset="0.838537" stop-color="#00C9FF"/>
</linearGradient>
<linearGradient id="paint1_linear_1055_111" x1="15.5" y1="8.125" x2="15.5" y2="9.58333" gradientUnits="userSpaceOnUse">
<stop stop-color="#00F0FF"/>
<stop offset="1" stop-color="#00F0FF"/>
</linearGradient>
<linearGradient id="paint2_linear_1055_111" x1="15.5" y1="5.625" x2="12" y2="9.5" gradientUnits="userSpaceOnUse">
<stop stop-color="#38DBFF"/>
<stop offset="0.324008" stop-color="#5CB1FF"/>
<stop offset="1" stop-color="#EDF3FF" stop-opacity="0"/>
</linearGradient>
<linearGradient id="paint3_linear_1055_111" x1="18" y1="3" x2="5.5" y2="17" gradientUnits="userSpaceOnUse">
<stop stop-color="#00C9FF"/>
<stop offset="1" stop-color="#92FE9D"/>
</linearGradient>
</defs>
</svg>
