<svg width="11" height="15" viewBox="0 0 11 15" fill="none" xmlns="http://www.w3.org/2000/svg">
<circle cx="1.01591" cy="13.0361" r="1" transform="rotate(-89.7731 1.01591 13.0361)" fill="#8AB5F4" fill-opacity="0.43"/>
<circle cx="1.01591" cy="13.0361" r="1" transform="rotate(-89.7731 1.01591 13.0361)" fill="#8AB5F4" fill-opacity="0.43"/>
<circle cx="1.01591" cy="13.0361" r="1" transform="rotate(-89.7731 1.01591 13.0361)" fill="#9CC3FE" fill-opacity="0.43"/>
<circle cx="1.02782" cy="9.02814" r="1" transform="rotate(-89.7731 1.02782 9.02814)" fill="#8AB5F4" fill-opacity="0.43"/>
<circle cx="1.02782" cy="9.02814" r="1" transform="rotate(-89.7731 1.02782 9.02814)" fill="#8AB5F4" fill-opacity="0.43"/>
<circle cx="1.02782" cy="9.02814" r="1" transform="rotate(-89.7731 1.02782 9.02814)" fill="#9CC3FE" fill-opacity="0.43"/>
<circle cx="1.03972" cy="5.0202" r="1" transform="rotate(-89.7731 1.03972 5.0202)" fill="#8AB5F4" fill-opacity="0.43"/>
<circle cx="1.03972" cy="5.0202" r="1" transform="rotate(-89.7731 1.03972 5.0202)" fill="#8AB5F4" fill-opacity="0.43"/>
<circle cx="1.03972" cy="5.0202" r="1" transform="rotate(-89.7731 1.03972 5.0202)" fill="#9CC3FE" fill-opacity="0.43"/>
<circle cx="1.05156" cy="1.01227" r="1" transform="rotate(-89.7731 1.05156 1.01227)" fill="#8AB5F4" fill-opacity="0.43"/>
<circle cx="1.05156" cy="1.01227" r="1" transform="rotate(-89.7731 1.05156 1.01227)" fill="#8AB5F4" fill-opacity="0.43"/>
<circle cx="1.05156" cy="1.01227" r="1" transform="rotate(-89.7731 1.05156 1.01227)" fill="#9CC3FE" fill-opacity="0.43"/>
<circle cx="5.05943" cy="13.048" r="1" transform="rotate(-89.7731 5.05943 13.048)" fill="#8AB5F4" fill-opacity="0.43"/>
<circle cx="5.05943" cy="13.048" r="1" transform="rotate(-89.7731 5.05943 13.048)" fill="#8AB5F4" fill-opacity="0.43"/>
<circle cx="5.05943" cy="13.048" r="1" transform="rotate(-89.7731 5.05943 13.048)" fill="#9CC3FE" fill-opacity="0.43"/>
<circle cx="5.07133" cy="9.04004" r="1" transform="rotate(-89.7731 5.07133 9.04004)" fill="#8AB5F4" fill-opacity="0.43"/>
<circle cx="5.07133" cy="9.04004" r="1" transform="rotate(-89.7731 5.07133 9.04004)" fill="#8AB5F4" fill-opacity="0.43"/>
<circle cx="5.07133" cy="9.04004" r="1" transform="rotate(-89.7731 5.07133 9.04004)" fill="#9CC3FE" fill-opacity="0.43"/>
<circle cx="5.08318" cy="5.0321" r="1" transform="rotate(-89.7731 5.08318 5.0321)" fill="#8AB5F4" fill-opacity="0.43"/>
<circle cx="5.08318" cy="5.0321" r="1" transform="rotate(-89.7731 5.08318 5.0321)" fill="#8AB5F4" fill-opacity="0.43"/>
<circle cx="5.08318" cy="5.0321" r="1" transform="rotate(-89.7731 5.08318 5.0321)" fill="#9CC3FE" fill-opacity="0.43"/>
<circle cx="5.09508" cy="1.02417" r="1" transform="rotate(-89.7731 5.09508 1.02417)" fill="#8AB5F4" fill-opacity="0.43"/>
<circle cx="5.09508" cy="1.02417" r="1" transform="rotate(-89.7731 5.09508 1.02417)" fill="#8AB5F4" fill-opacity="0.43"/>
<circle cx="5.09508" cy="1.02417" r="1" transform="rotate(-89.7731 5.09508 1.02417)" fill="#9CC3FE" fill-opacity="0.43"/>
<circle cx="9.10295" cy="13.0598" r="1" transform="rotate(-89.7731 9.10295 13.0598)" fill="#8AB5F4" fill-opacity="0.43"/>
<circle cx="9.10295" cy="13.0598" r="1" transform="rotate(-89.7731 9.10295 13.0598)" fill="#8AB5F4" fill-opacity="0.43"/>
<circle cx="9.10295" cy="13.0598" r="1" transform="rotate(-89.7731 9.10295 13.0598)" fill="#9CC3FE" fill-opacity="0.43"/>
<circle cx="9.11479" cy="9.05188" r="1" transform="rotate(-89.7731 9.11479 9.05188)" fill="#8AB5F4" fill-opacity="0.43"/>
<circle cx="9.11479" cy="9.05188" r="1" transform="rotate(-89.7731 9.11479 9.05188)" fill="#8AB5F4" fill-opacity="0.43"/>
<circle cx="9.11479" cy="9.05188" r="1" transform="rotate(-89.7731 9.11479 9.05188)" fill="#9CC3FE" fill-opacity="0.43"/>
<circle cx="9.12669" cy="5.04395" r="1" transform="rotate(-89.7731 9.12669 5.04395)" fill="#8AB5F4" fill-opacity="0.43"/>
<circle cx="9.12669" cy="5.04395" r="1" transform="rotate(-89.7731 9.12669 5.04395)" fill="#8AB5F4" fill-opacity="0.43"/>
<circle cx="9.12669" cy="5.04395" r="1" transform="rotate(-89.7731 9.12669 5.04395)" fill="#9CC3FE" fill-opacity="0.43"/>
<circle cx="9.13859" cy="1.03601" r="1" transform="rotate(-89.7731 9.13859 1.03601)" fill="#8AB5F4" fill-opacity="0.43"/>
<circle cx="9.13859" cy="1.03601" r="1" transform="rotate(-89.7731 9.13859 1.03601)" fill="#8AB5F4" fill-opacity="0.43"/>
<circle cx="9.13859" cy="1.03601" r="1" transform="rotate(-89.7731 9.13859 1.03601)" fill="#9CC3FE" fill-opacity="0.43"/>
</svg>
